<?xml version="1.0" encoding="UTF-8"?>
<svg id="Layer_1" xmlns="http://www.w3.org/2000/svg" version="1.1" viewBox="0 0 654.56 849.15">
  <defs>
    <style>
      .st0 {
        fill: #8d5af2;
      }
    </style>
  </defs>
  <path class="st0" d="M366.22,635.43s106.21,114.24,210.6-7.92c0,0,.49,35.49-31.34,66.8-60.54,59.54-133.86,21.17-179.26-58.88h0Z"/>
  <path class="st0" d="M439,849.15h-135.12c-47.35,0-79.04-40.14-79.04-87.49v-11.98h86.65c60.69,65.73,127.51,99.47,127.51,99.47Z"/>
  <path class="st0" d="M338.55.19C152.53-6.09-2.47,145.72.03,331.8c1.56,114.52,61.93,214.82,152.28,272.1,43.15,27.34,72.53,73.8,72.53,124.89v2.44l99.41.58c-52.62-66.47-128.72-152.97-122.1-355.8,0,0,96.36,181.1,246.21,16.66-.92,2.07-11.22,55.15-27.1,114.85-11.57,43.52-14.82,67.77,4.69,88.18,21.84,22.84,57.74,24.8,82.88,5.67,86.33-65.68,145.73-160.28,145.73-274.08C654.56,150.3,514.06,6.14,338.55.19ZM410.92,332.74c-2.64,41.72-36.47,75.57-78.19,78.21-50.6,3.2-92.32-38.52-89.12-89.12,2.64-41.72,36.49-75.55,78.21-78.19,50.62-3.22,92.29,38.48,89.1,89.1Z"/>
  <path class="st0" d="M490.76,849.15s-90.21-37.86-151.26-100.26h71l20.08,30.17c9.57,14.37,20.34,27.91,32.19,40.46l27.99,29.64h0Z"/>
</svg>
